<svg width="1200" height="760" viewBox="0 0 1200 760" fill="none" xmlns="http://www.w3.org/2000/svg">
  <defs>
    <linearGradient id="bg" x1="80" y1="48" x2="1120" y2="712" gradientUnits="userSpaceOnUse">
      <stop stop-color="#FAF3E8"/>
      <stop offset="1" stop-color="#F1E4D3"/>
    </linearGradient>
    <linearGradient id="board" x1="264" y1="104" x2="936" y2="616" gradientUnits="userSpaceOnUse">
      <stop stop-color="#F7E5CA"/>
      <stop offset="1" stop-color="#E8CDA7"/>
    </linearGradient>
    <filter id="shadow" x="0" y="0" width="1200" height="760" filterUnits="userSpaceOnUse">
      <feDropShadow dx="0" dy="16" stdDeviation="20" flood-color="#8D684B" flood-opacity="0.18"/>
    </filter>
    <g id="redPiece">
      <circle r="22" fill="#FBF7F1"/>
      <circle r="18.5" fill="none" stroke="#B93B31" stroke-width="3"/>
      <circle r="22" fill="none" stroke="#D9BE9B" stroke-width="1.5"/>
    </g>
    <g id="blackPiece">
      <circle r="22" fill="#FBF7F1"/>
      <circle r="18.5" fill="none" stroke="#46494E" stroke-width="3"/>
      <circle r="22" fill="none" stroke="#D9BE9B" stroke-width="1.5"/>
    </g>
  </defs>

  <rect width="1200" height="760" rx="32" fill="url(#bg)"/>
  <g filter="url(#shadow)">
    <rect x="76" y="52" width="1048" height="656" rx="28" fill="#FFF9F1"/>
    <rect x="264" y="104" width="672" height="512" rx="20" fill="url(#board)"/>
  </g>

  <g opacity="0.26" stroke="#C39A6C" stroke-width="2">
    <path d="M304 146H896"/>
    <path d="M304 570H896"/>
  </g>

  <g stroke="#8A6245" stroke-width="3">
    <line x1="264" y1="104" x2="264" y2="616"/>
    <line x1="348" y1="104" x2="348" y2="616"/>
    <line x1="432" y1="104" x2="432" y2="616"/>
    <line x1="516" y1="104" x2="516" y2="616"/>
    <line x1="600" y1="104" x2="600" y2="616"/>
    <line x1="684" y1="104" x2="684" y2="616"/>
    <line x1="768" y1="104" x2="768" y2="616"/>
    <line x1="852" y1="104" x2="852" y2="616"/>
    <line x1="936" y1="104" x2="936" y2="616"/>
    <line x1="264" y1="104" x2="936" y2="104"/>
    <line x1="264" y1="168" x2="936" y2="168"/>
    <line x1="264" y1="232" x2="936" y2="232"/>
    <line x1="264" y1="296" x2="936" y2="296"/>
    <line x1="264" y1="360" x2="936" y2="360"/>
    <line x1="264" y1="424" x2="936" y2="424"/>
    <line x1="264" y1="488" x2="936" y2="488"/>
    <line x1="264" y1="552" x2="936" y2="552"/>
    <line x1="264" y1="616" x2="936" y2="616"/>
    <line x1="516" y1="104" x2="684" y2="232"/>
    <line x1="684" y1="104" x2="516" y2="232"/>
    <line x1="516" y1="488" x2="684" y2="616"/>
    <line x1="684" y1="488" x2="516" y2="616"/>
  </g>

  <rect x="264" y="320" width="672" height="80" fill="#F7E7D1"/>
  <text x="447" y="370" fill="#B14A3F" font-size="34" font-family="'Microsoft YaHei','PingFang SC',sans-serif" letter-spacing="10">楚河</text>
  <text x="668" y="370" fill="#4D555C" font-size="34" font-family="'Microsoft YaHei','PingFang SC',sans-serif" letter-spacing="10">汉界</text>

  <text x="600" y="70" text-anchor="middle" fill="#6B5344" font-size="38" font-weight="700" font-family="'Microsoft YaHei','PingFang SC',sans-serif">开局前棋子的标准摆法</text>
  <text x="600" y="682" text-anchor="middle" fill="#8B705C" font-size="24" font-family="'Microsoft YaHei','PingFang SC',sans-serif">红方在下，黑方在上，双方布局左右对称</text>

  <g transform="translate(264 616)"><use href="#redPiece"/></g>
  <g transform="translate(348 616)"><use href="#redPiece"/></g>
  <g transform="translate(432 616)"><use href="#redPiece"/></g>
  <g transform="translate(516 616)"><use href="#redPiece"/></g>
  <g transform="translate(600 616)"><use href="#redPiece"/></g>
  <g transform="translate(684 616)"><use href="#redPiece"/></g>
  <g transform="translate(768 616)"><use href="#redPiece"/></g>
  <g transform="translate(852 616)"><use href="#redPiece"/></g>
  <g transform="translate(936 616)"><use href="#redPiece"/></g>
  <g transform="translate(348 488)"><use href="#redPiece"/></g>
  <g transform="translate(852 488)"><use href="#redPiece"/></g>
  <g transform="translate(264 360)"><use href="#redPiece"/></g>
  <g transform="translate(432 360)"><use href="#redPiece"/></g>
  <g transform="translate(600 360)"><use href="#redPiece"/></g>
  <g transform="translate(768 360)"><use href="#redPiece"/></g>
  <g transform="translate(936 360)"><use href="#redPiece"/></g>

  <g transform="translate(264 104)"><use href="#blackPiece"/></g>
  <g transform="translate(348 104)"><use href="#blackPiece"/></g>
  <g transform="translate(432 104)"><use href="#blackPiece"/></g>
  <g transform="translate(516 104)"><use href="#blackPiece"/></g>
  <g transform="translate(600 104)"><use href="#blackPiece"/></g>
  <g transform="translate(684 104)"><use href="#blackPiece"/></g>
  <g transform="translate(768 104)"><use href="#blackPiece"/></g>
  <g transform="translate(852 104)"><use href="#blackPiece"/></g>
  <g transform="translate(936 104)"><use href="#blackPiece"/></g>
  <g transform="translate(348 232)"><use href="#blackPiece"/></g>
  <g transform="translate(852 232)"><use href="#blackPiece"/></g>
  <g transform="translate(264 296)"><use href="#blackPiece"/></g>
  <g transform="translate(432 296)"><use href="#blackPiece"/></g>
  <g transform="translate(600 296)"><use href="#blackPiece"/></g>
  <g transform="translate(768 296)"><use href="#blackPiece"/></g>
  <g transform="translate(936 296)"><use href="#blackPiece"/></g>
  <g fill="#6F5240" font-size="22" font-family="'Microsoft YaHei','PingFang SC',sans-serif">
    <text x="264" y="150" text-anchor="middle">车</text>
    <text x="348" y="150" text-anchor="middle">马</text>
    <text x="432" y="150" text-anchor="middle">象</text>
    <text x="516" y="150" text-anchor="middle">士</text>
    <text x="600" y="150" text-anchor="middle">将</text>
    <text x="684" y="150" text-anchor="middle">士</text>
    <text x="768" y="150" text-anchor="middle">象</text>
    <text x="852" y="150" text-anchor="middle">马</text>
    <text x="936" y="150" text-anchor="middle">车</text>
    <text x="348" y="278" text-anchor="middle">炮</text>
    <text x="852" y="278" text-anchor="middle">炮</text>
    <text x="264" y="342" text-anchor="middle">卒</text>
    <text x="432" y="342" text-anchor="middle">卒</text>
    <text x="600" y="342" text-anchor="middle">卒</text>
    <text x="768" y="342" text-anchor="middle">卒</text>
    <text x="936" y="342" text-anchor="middle">卒</text>
  </g>
  <g fill="#C44A3D" font-size="22" font-family="'Microsoft YaHei','PingFang SC',sans-serif">
    <text x="264" y="662" text-anchor="middle">车</text>
    <text x="348" y="662" text-anchor="middle">马</text>
    <text x="432" y="662" text-anchor="middle">相</text>
    <text x="516" y="662" text-anchor="middle">仕</text>
    <text x="600" y="662" text-anchor="middle">帅</text>
    <text x="684" y="662" text-anchor="middle">仕</text>
    <text x="768" y="662" text-anchor="middle">相</text>
    <text x="852" y="662" text-anchor="middle">马</text>
    <text x="936" y="662" text-anchor="middle">车</text>
    <text x="348" y="534" text-anchor="middle">炮</text>
    <text x="852" y="534" text-anchor="middle">炮</text>
    <text x="264" y="406" text-anchor="middle">兵</text>
    <text x="432" y="406" text-anchor="middle">兵</text>
    <text x="600" y="406" text-anchor="middle">兵</text>
    <text x="768" y="406" text-anchor="middle">兵</text>
    <text x="936" y="406" text-anchor="middle">兵</text>
  </g>
</svg>
