<svg width="320" height="220" viewBox="0 0 320 220" xmlns="http://www.w3.org/2000/svg">
  <rect width="320" height="220" rx="24" fill="#fbf6ee"/>
  <text x="24" y="28" font-size="14" fill="#7b6559">炮平走像车；吃子时，必须隔着一个炮架。</text>

  <g transform="translate(24 44)">
    <rect width="120" height="140" rx="18" fill="#fffaf3" stroke="#d8c7b7"/>
    <text x="16" y="22" font-size="13" fill="#8b6758">平走</text>
    <g stroke="#ccb5a2" stroke-width="2">
      <path d="M20 36v88M60 36v88M100 36v88"/>
      <path d="M20 36h80M20 80h80M20 124h80"/>
    </g>
    <circle cx="60" cy="80" r="18" fill="#5f463c"/>
    <text x="60" y="86" text-anchor="middle" font-size="18" font-weight="700" fill="#fff8f2">炮</text>
    <path d="M60 80H20" stroke="#6f5347" stroke-width="5" stroke-linecap="round"/>
    <path d="M60 80H100" stroke="#6f5347" stroke-width="5" stroke-linecap="round"/>
    <circle cx="20" cy="80" r="6" fill="#6f5347"/>
    <circle cx="100" cy="80" r="6" fill="#6f5347"/>
  </g>

  <g transform="translate(176 44)">
    <rect width="120" height="140" rx="18" fill="#fffaf3" stroke="#d8c7b7"/>
    <text x="16" y="22" font-size="13" fill="#8b6758">隔子吃</text>
    <g stroke="#ccb5a2" stroke-width="2">
      <path d="M20 36v88M60 36v88M100 36v88"/>
      <path d="M20 36h80M20 80h80M20 124h80"/>
    </g>
    <circle cx="20" cy="80" r="18" fill="#5f463c"/>
    <text x="20" y="86" text-anchor="middle" font-size="18" font-weight="700" fill="#fff8f2">炮</text>
    <circle cx="60" cy="80" r="10" fill="#c6a56b"/>
    <text x="60" y="113" text-anchor="middle" font-size="12" fill="#8b6758">炮架</text>
    <circle cx="100" cy="80" r="16" fill="#c74430"/>
    <text x="100" y="85" text-anchor="middle" font-size="14" font-weight="700" fill="#fff8f2">敌</text>
    <path d="M38 80H82" stroke="#6f5347" stroke-width="5" stroke-linecap="round" stroke-dasharray="6 6"/>
    <circle cx="100" cy="80" r="22" fill="none" stroke="#d24a33" stroke-width="3"/>
  </g>
</svg>
