<svg width="320" height="220" viewBox="0 0 320 220" xmlns="http://www.w3.org/2000/svg">
  <rect width="320" height="220" rx="24" fill="#fbf6ee"/>
  <text x="24" y="28" font-size="13" fill="#7b6559">相走田字；相眼被堵时，该方向不可达。</text>

  <g transform="translate(22 40)">
    <rect width="276" height="148" rx="18" fill="#fffaf3" stroke="#d8c7b7"/>
    <g stroke="#ccb5a2" stroke-width="2">
      <path d="M42 24v116M78 24v116M114 24v116M150 24v116M186 24v116M222 24v116"/>
      <path d="M42 24h180M42 60h180M42 96h180M42 132h180"/>
    </g>
    <path d="M114 132L186 60" stroke="#d24a33" stroke-width="5" stroke-linecap="round"/>
    <circle cx="186" cy="60" r="7" fill="#d24a33"/>

    <circle cx="114" cy="132" r="20" fill="#c74430"/>
    <text x="114" y="139" text-anchor="middle" font-size="22" font-weight="700" fill="#fff8f2">相</text>

    <circle cx="78" cy="96" r="9" fill="#8b6758"/>
    <line x1="72" y1="90" x2="84" y2="102" stroke="#fff8f2" stroke-width="3"/>
    <line x1="84" y1="90" x2="72" y2="102" stroke="#fff8f2" stroke-width="3"/>
    <path d="M114 132L42 60" stroke="#8b6758" stroke-width="4" stroke-dasharray="7 7" stroke-linecap="round"/>
    <circle cx="42" cy="60" r="7" fill="none" stroke="#8b6758" stroke-width="3"/>

    <g fill="#8b6758" font-size="11.5">
      <text x="170" y="114">红点：可达交点</text>
      <text x="144" y="130">灰点：相眼被堵</text>
    </g>
  </g>
</svg>
