<svg width="320" height="220" viewBox="0 0 320 220" xmlns="http://www.w3.org/2000/svg">
  <rect width="320" height="220" rx="24" fill="#fbf6ee"/>
  <g stroke="#cdb8a4" stroke-width="2">
    <path d="M70 40v140M110 40v140M150 40v140M190 40v140M230 40v140"/>
    <path d="M70 40h160M70 75h160M70 110h160M70 145h160M70 180h160"/>
  </g>
  <rect x="110" y="75" width="80" height="70" rx="12" fill="none" stroke="#8b6758" stroke-dasharray="6 6" stroke-width="2"/>
  <g stroke="#d24a33" stroke-width="6" stroke-linecap="round">
    <path d="M150 110V78"/>
    <path d="M150 110V142"/>
    <path d="M150 110H118"/>
    <path d="M150 110H182"/>
  </g>
  <g fill="#d24a33">
    <path d="M150 66l-8 12h16z"/>
    <path d="M150 154l-8-12h16z"/>
    <path d="M106 110l12-8v16z"/>
    <path d="M194 110l-12-8v16z"/>
  </g>
  <circle cx="150" cy="110" r="24" fill="#c74430"/>
  <text x="150" y="118" text-anchor="middle" font-size="24" font-weight="700" fill="#fff8f2">帅</text>
</svg>
