<svg width="320" height="220" viewBox="0 0 320 220" xmlns="http://www.w3.org/2000/svg">
  <rect width="320" height="220" rx="24" fill="#fbf6ee"/>
  <text x="24" y="28" font-size="13" fill="#7b6559">马走日字；一条正常落点，一条被蹩马腿的落点。</text>

  <g transform="translate(22 40)">
    <rect width="276" height="148" rx="18" fill="#fffaf3" stroke="#d8c7b7"/>
    <g stroke="#ccb5a2" stroke-width="2">
      <path d="M44 28v112M80 28v112M116 28v112M152 28v112M188 28v112M224 28v112"/>
      <path d="M44 28h180M44 64h180M44 100h180M44 136h180"/>
    </g>

    <circle cx="116" cy="100" r="20" fill="#c74430"/>
    <text x="116" y="107" text-anchor="middle" font-size="22" font-weight="700" fill="#fff8f2">马</text>

    <path d="M116 100L188 136" stroke="#d24a33" stroke-width="5" stroke-linecap="round"/>
    <circle cx="188" cy="136" r="7" fill="#d24a33"/>
    <text x="196" y="132" font-size="12" fill="#d24a33">正常落点</text>

    <circle cx="116" cy="64" r="9" fill="#8b6758"/>
    <text x="129" y="58" font-size="12" fill="#8b6758">马腿</text>
    <path d="M116 100L152 28" stroke="#8b6758" stroke-width="4" stroke-dasharray="7 7" stroke-linecap="round"/>
    <circle cx="152" cy="28" r="7" fill="none" stroke="#8b6758" stroke-width="3"/>
    <line x1="146" y1="22" x2="158" y2="34" stroke="#8b6758" stroke-width="3"/>
    <line x1="158" y1="22" x2="146" y2="34" stroke="#8b6758" stroke-width="3"/>
    <text x="148" y="156" font-size="11.5" fill="#8b6758">上方马腿被堵，这个落点无效</text>
  </g>
</svg>
